<svg xmlns="http://www.w3.org/2000/svg" xmlns:xlink="http://www.w3.org/1999/xlink" width="11049" zoomAndPan="magnify" viewBox="0 0 8286.75 4616.249784" height="6155" preserveAspectRatio="xMidYMid meet" version="1.0"><defs><g/></defs><g fill="#00c4cc" fill-opacity="1"><g transform="translate(1784.22938, 2413.95046)"><g><path d="M 493.210938 -62.828125 C 595.148438 -73.503906 682.992188 -105.386719 756.742188 -158.476562 C 828.609375 -211.332031 891.316406 -276.4375 942.746094 -355.449219 C 994.175781 -434.460938 1035.023438 -521.726562 1069.058594 -617.714844 C 1103.09375 -713.699219 1131.015625 -812.75 1156.820312 -913.457031 C 1180.972656 -1012.042969 1203.242188 -1110.402344 1224.09375 -1204.757812 C 1244.949219 -1299.113281 1266.730469 -1385.9375 1291.792969 -1461.691406 C 1316.851562 -1537.449219 1345.660156 -1598.367188 1377.742188 -1648.222656 C 1410.0625 -1696.191406 1450.585938 -1724.144531 1501.4375 -1730.421875 C 1529.6875 -1733.914062 1551.800781 -1725.171875 1567.542969 -1706.082031 C 1581.636719 -1684.878906 1590.308594 -1661.089844 1592.148438 -1630.722656 C 1592.105469 -1600.125 1586.175781 -1570.710938 1571.0625 -1538.25 C 1555.953125 -1505.792969 1534.492188 -1478.285156 1506.683594 -1455.726562 C 1545.050781 -1454.730469 1580.601562 -1461.03125 1613.105469 -1476.519531 C 1645.613281 -1492.007812 1675.769531 -1511.027344 1699.34375 -1536.886719 C 1723.152344 -1560.859375 1742.730469 -1588.136719 1757.839844 -1620.59375 C 1771.070312 -1652.824219 1778.648438 -1684.351562 1778.460938 -1716.835938 C 1778.273438 -1749.316406 1768.667969 -1780.636719 1753.179688 -1813.140625 C 1736.042969 -1843.53125 1709.71875 -1870.875 1672.332031 -1894.9375 C 1637.523438 -1913.585938 1598.226562 -1922.117188 1554.441406 -1920.53125 C 1510.660156 -1918.949219 1466.390625 -1905.832031 1421.164062 -1884.949219 C 1374.292969 -1861.953125 1330.464844 -1829.769531 1287.566406 -1790.054688 C 1242.785156 -1750.105469 1204.816406 -1701.4375 1173.429688 -1645.933594 C 1135.671875 -1580.082031 1100.730469 -1506.929688 1072.597656 -1425.058594 C 1044.46875 -1343.1875 1016.570312 -1259.433594 988.90625 -1173.796875 C 961.242188 -1088.160156 933.34375 -1004.40625 904.980469 -924.417969 C 876.617188 -844.429688 841.671875 -771.277344 801.566406 -708.960938 C 761.460938 -646.644531 714.308594 -594.933594 661.53125 -557.820312 C 606.867188 -520.472656 542.113281 -502.914062 467.265625 -505.144531 C 419.25 -506.863281 383.023438 -521.507812 356.699219 -548.851562 C 330.378906 -576.195312 310.660156 -612 301.542969 -654.855469 C 290.773438 -695.589844 287.074219 -741.023438 290.445312 -791.15625 C 292.160156 -839.167969 299.996094 -884.117188 311.828125 -927.644531 C 323.894531 -969.289062 340.425781 -1005.746094 359.769531 -1034.90625 C 379.113281 -1064.066406 399.851562 -1081.921875 422.21875 -1086.597656 C 367.644531 -1110.453125 316.585938 -1121.355469 269.269531 -1117.421875 C 220.066406 -1113.257812 176.03125 -1098.257812 136.921875 -1074.304688 C 95.929688 -1050.121094 59.867188 -1016.988281 30.621094 -975.132812 C -0.511719 -933.046875 -25.296875 -886.003906 -41.847656 -834.246094 C -60.285156 -782.253906 -72.605469 -727.195312 -76.925781 -669.296875 C -83.132812 -611.167969 -79.921875 -554.199219 -69.175781 -498.164062 C -55.175781 -415.761719 -29.382812 -346.285156 6.308594 -289.507812 C 40.351562 -230.613281 84.535156 -182.53125 134.851562 -146.679688 C 185.171875 -110.828125 239.976562 -85.089844 300.921875 -71.585938 C 362.097656 -56.195312 425.410156 -54.453125 493.210938 -62.828125 Z M 493.210938 -62.828125 "/></g></g></g><g fill="#00c4cc" fill-opacity="1"><g transform="translate(3087.40732, 2252.996978)"><g><path d="M 188.882812 -715.511719 L -184.570312 22.796875 L 75.335938 -9.304688 C 163.171875 -196.066406 235.894531 -350.367188 293.039062 -475.976562 C 350.1875 -601.585938 399.058594 -701.316406 441.300781 -777.28125 C 481.894531 -851.128906 519.164062 -905.449219 553.34375 -938.351562 C 587.753906 -969.371094 623.792969 -987.207031 663.578125 -990.207031 C 688.527344 -989.464844 706.640625 -982.140625 716.5 -964.238281 C 726.359375 -946.335938 725.152344 -925.152344 709.339844 -898.34375 L 479.726562 -497.121094 C 466.988281 -476.429688 454.710938 -451.96875 438.902344 -425.15625 C 423.324219 -396.464844 411.511719 -368.234375 399.703125 -340.007812 C 386.242188 -309.664062 376.546875 -279.785156 370.621094 -250.371094 C 364.691406 -220.957031 364.183594 -194.125 370.972656 -170.105469 C 376.113281 -143.96875 388.320312 -122.53125 409.480469 -106.027344 C 430.875 -87.632812 462.867188 -76.289062 505.464844 -71.988281 C 532.761719 -67.710938 562.898438 -71.433594 592.566406 -78.921875 C 622.234375 -86.410156 647.4375 -99.085938 671.714844 -119.292969 C 696.21875 -137.617188 719.796875 -163.472656 744.789062 -193.328125 C 767.898438 -222.953125 792.429688 -256.578125 816.726562 -292.082031 C 839.371094 -325.472656 860.132812 -358.632812 880.664062 -393.671875 C 899.542969 -426.597656 918.652344 -457.640625 934.230469 -486.335938 C 923.628906 -479.289062 911.605469 -468.242188 899.820312 -455.316406 C 893.214844 -446.851562 888.261719 -440.503906 881.425781 -433.921875 C 874.59375 -427.339844 867.757812 -420.761719 862.804688 -414.414062 C 849.132812 -401.25 835.460938 -388.089844 821.324219 -378.695312 C 807.1875 -369.300781 792.585938 -363.675781 777.519531 -361.8125 C 754.917969 -359.023438 742.222656 -368.925781 741.082031 -393.644531 C 738.523438 -414.359375 744.449219 -443.773438 758.632812 -483.765625 C 771.394531 -519.761719 789.34375 -560.222656 810.363281 -606.796875 C 831.609375 -651.484375 852.859375 -696.175781 874.109375 -740.867188 C 893.710938 -783.441406 911.890625 -822.019531 926.539062 -858.246094 C 941.417969 -892.589844 949.691406 -918.46875 951.367188 -935.882812 C 950.945312 -970.25 947.691406 -996.617188 937.363281 -1018.289062 C 927.039062 -1039.957031 915.296875 -1057.628906 898.367188 -1070.835938 C 860.746094 -1096.78125 820.984375 -1109.078125 778.851562 -1109.613281 C 736.722656 -1110.144531 693.867188 -1101.027344 654.296875 -1080.84375 C 612.839844 -1060.425781 574.195312 -1032.707031 536.714844 -995.574219 C 499.46875 -956.554688 468.335938 -914.46875 440.019531 -865.078125 C 448.570312 -919.675781 449.105469 -961.808594 439.5 -993.125 C 430.128906 -1022.5625 408.734375 -1040.953125 375.324219 -1048.300781 C 352.023438 -1051.160156 324.007812 -1045.785156 291.269531 -1032.183594 C 256.648438 -1018.34375 215.886719 -992.277344 170.640625 -956.097656 L 164.0625 -962.933594 C 199.777344 -921.453125 218.078125 -881.648438 222.5 -845.863281 C 222.941406 -826.796875 219.851562 -805.382812 214.644531 -785.617188 C 207.785156 -763.738281 199.277344 -739.742188 188.882812 -715.511719 Z M 188.882812 -715.511719 "/></g></g></g><g fill="#00c4cc" fill-opacity="1"><g transform="translate(3970.624584, 2143.912187)"><g><path d="M 598.703125 -91.152344 L 591.867188 -84.574219 C 644.601562 -91.085938 695.476562 -112.667969 746.140625 -151.429688 C 795.152344 -188.078125 843.003906 -234.140625 886.15625 -287.273438 C 927.65625 -338.289062 964.695312 -394.492188 999.613281 -452.34375 C 1034.535156 -510.195312 1062.15625 -565.234375 1082.941406 -613.691406 C 1079.640625 -609.460938 1076.105469 -607.109375 1070.921875 -602.644531 C 1065.734375 -598.179688 1060.785156 -591.832031 1053.949219 -585.253906 C 1038.859375 -568.09375 1021.886719 -550.699219 1003.027344 -533.074219 C 984.40625 -513.5625 963.898438 -493.824219 941.507812 -473.847656 C 893.660156 -427.785156 853.828125 -394.183594 818.023438 -374.464844 C 800.351562 -362.722656 785.519531 -358.976562 775.636719 -361.582031 C 765.753906 -364.183594 762.476562 -375.25 765.796875 -394.785156 C 767.238281 -414.082031 780.46875 -446.308594 802.183594 -487.234375 L 1143.277344 -1146.972656 L 877.71875 -1114.175781 L 778.582031 -926.015625 C 773.929688 -963.683594 764.558594 -993.121094 748.117188 -1017.859375 C 731.910156 -1040.714844 712.636719 -1057.453125 688.171875 -1069.730469 C 662.0625 -1079.890625 632.878906 -1083.933594 602.28125 -1083.980469 C 571.914062 -1082.140625 538.480469 -1074.1875 505.507812 -1062.464844 C 480.070312 -1051.675781 451.332031 -1036.65625 421.640625 -1013.867188 C 391.949219 -991.078125 362.492188 -966.40625 331.847656 -935.851562 C 301.203125 -905.296875 269.140625 -870.746094 237.542969 -832.425781 C 205.945312 -794.101562 176.234375 -756.015625 146.984375 -714.160156 C 111.132812 -663.84375 79.046875 -613.988281 50.960938 -562.71875 C 21.226562 -509.332031 -3.09375 -458.523438 -23.644531 -408.183594 C -38.292969 -371.957031 -50.355469 -330.3125 -56.074219 -283.714844 C -61.792969 -237.117188 -62.324219 -194.984375 -53.671875 -155.898438 C -46.671875 -114.699219 -31.183594 -82.191406 -8.863281 -56.269531 C 13.460938 -30.34375 47.339844 -19.230469 94.425781 -25.046875 C 158.457031 -32.957031 224.632812 -54.511719 288.710938 -93.023438 C 319.101562 -110.160156 347.140625 -130.832031 373.066406 -153.15625 C 398.992188 -175.476562 420.683594 -201.101562 436.492188 -227.914062 C 438.078125 -184.128906 453.796875 -149.742188 483.886719 -122.863281 C 512.089844 -95.753906 549.734375 -85.105469 598.703125 -91.152344 Z M 254.636719 -291.496094 C 236.523438 -298.820312 223.363281 -312.492188 214.921875 -334.394531 C 206.480469 -356.296875 206.757812 -385.011719 213.636719 -422.191406 C 218.867188 -457.257812 232.816406 -499.132812 256.902344 -551.824219 C 281.222656 -602.628906 315.910156 -662.363281 360.96875 -731.03125 C 380.3125 -760.1875 399.65625 -789.347656 422.769531 -818.96875 C 443.996094 -848.363281 467.570312 -874.21875 491.148438 -900.074219 C 513.070312 -923.816406 537.347656 -944.023438 564.199219 -958.8125 C 589.171875 -973.371094 616.957031 -980.625 647.09375 -984.347656 C 664.273438 -984.558594 678.15625 -980.535156 688.738281 -972.28125 C 697.664062 -961.914062 704.945312 -949.425781 710.804688 -932.941406 C 714.78125 -916.222656 717.105469 -897.390625 716.132812 -874.324219 C 715.15625 -851.257812 714.179688 -828.191406 709.671875 -802.777344 L 711.554688 -803.011719 L 549.179688 -507.613281 C 536.902344 -483.152344 519.210938 -456.109375 499.867188 -426.949219 C 478.640625 -397.558594 455.296875 -369.820312 429.605469 -345.613281 C 402.261719 -319.289062 373.988281 -300.5 344.785156 -289.246094 C 313.929688 -275.875 283.332031 -275.917969 254.636719 -291.496094 Z M 254.636719 -291.496094 "/></g></g></g><g fill="#00c4cc" fill-opacity="1"><g transform="translate(4944.23718, 2023.662808)"><g><path d="M 185.582031 -711.28125 L -657.140625 933.960938 C -630.773438 930.707031 -608.871094 922.265625 -588.128906 904.40625 L -527.328125 854.828125 C -506.355469 838.855469 -481.386719 824.296875 -452.648438 809.277344 C -423.675781 796.136719 -388.125 789.835938 -342.457031 788.019531 L -325.695312 753.441406 L 126.386719 -153.28125 C 158.339844 -111.335938 194.542969 -81.390625 232.652344 -66.976562 C 269.113281 -50.445312 307.945312 -45.683594 349.144531 -52.683594 C 388.695312 -57.566406 428.96875 -72.101562 468.074219 -96.054688 C 507.183594 -120.003906 545.59375 -149.605469 583.074219 -186.742188 C 631.15625 -230.921875 676.191406 -284.285156 718.414062 -344.953125 C 760.636719 -405.617188 798.625 -469.585938 832.617188 -534.972656 C 866.609375 -600.355469 895.179688 -663.160156 917.871094 -727.152344 C 940.5625 -791.140625 956.183594 -850.433594 964.738281 -905.03125 C 971.410156 -959.390625 969.824219 -1003.175781 961.40625 -1040.378906 C 951.101562 -1077.347656 931.128906 -1099.738281 901.015625 -1111.316406 C 881.253906 -1116.523438 856.304688 -1117.265625 828.054688 -1113.777344 C 799.804688 -1110.289062 766.832031 -1098.566406 730.792969 -1080.730469 C 693.101562 -1060.777344 650.460938 -1034.480469 603.332031 -998.066406 C 554.320312 -961.417969 501.050781 -912.773438 443.066406 -855.894531 C 453.988281 -922.257812 447.707031 -973.109375 422.570312 -1006.332031 C 395.785156 -1037.441406 365.207031 -1052.785156 327.074219 -1051.902344 C 296.707031 -1050.0625 267.273438 -1040.691406 236.648438 -1025.4375 C 206.261719 -1008.296875 182.21875 -986.207031 162.644531 -958.933594 C 188.058594 -954.421875 206.402344 -945.214844 216.03125 -929.195312 C 225.890625 -911.292969 231.984375 -892.925781 231.007812 -869.859375 C 230.265625 -844.910156 223.871094 -819.261719 215.828125 -791.5 C 207.785156 -763.738281 197.859375 -735.742188 187.464844 -711.511719 Z M 404.144531 -319.523438 C 372.128906 -315.566406 348.363281 -322.195312 332.855469 -339.398438 C 317.578125 -354.722656 307.484375 -374.507812 302.34375 -400.644531 C 295.554688 -424.660156 296.066406 -451.492188 301.992188 -480.90625 C 306.035156 -510.089844 316.195312 -536.199219 328.472656 -560.664062 L 330.355469 -560.894531 C 348.535156 -599.46875 373.785156 -642.742188 406.101562 -690.714844 C 438.652344 -736.800781 473.085938 -783.117188 511.519531 -828.019531 C 548.300781 -870.804688 587.664062 -908.171875 629.144531 -943.890625 C 670.855469 -977.722656 711.847656 -1001.90625 751.886719 -1018.324219 C 781.089844 -1029.578125 804.15625 -1028.605469 820.851562 -1017.28125 C 837.546875 -1005.957031 845.523438 -987.824219 848.777344 -961.457031 C 850.382812 -932.972656 846.804688 -900.023438 838.042969 -862.613281 C 829.511719 -823.316406 817.210938 -783.554688 799.496094 -741.210938 C 784.382812 -708.753906 762.667969 -667.828125 733.886719 -622.207031 C 703.453125 -574.46875 669.019531 -528.152344 632.234375 -485.367188 C 593.804688 -440.464844 554.441406 -403.097656 514.378906 -371.378906 C 474.316406 -339.660156 438.277344 -321.824219 404.144531 -319.523438 Z M 404.144531 -319.523438 "/></g></g></g><g fill="#5ce1e6" fill-opacity="1"><g transform="translate(1826.428745, 2383.244812)"><g><path d="M 493.210938 -62.828125 C 595.148438 -73.503906 682.992188 -105.386719 756.742188 -158.476562 C 828.609375 -211.332031 891.316406 -276.4375 942.746094 -355.449219 C 994.175781 -434.460938 1035.023438 -521.726562 1069.058594 -617.714844 C 1103.09375 -713.699219 1131.015625 -812.75 1156.820312 -913.457031 C 1180.972656 -1012.042969 1203.242188 -1110.402344 1224.09375 -1204.757812 C 1244.949219 -1299.113281 1266.730469 -1385.9375 1291.792969 -1461.691406 C 1316.851562 -1537.449219 1345.660156 -1598.367188 1377.742188 -1648.222656 C 1410.0625 -1696.191406 1450.585938 -1724.144531 1501.4375 -1730.421875 C 1529.6875 -1733.914062 1551.800781 -1725.171875 1567.542969 -1706.082031 C 1581.636719 -1684.878906 1590.308594 -1661.089844 1592.148438 -1630.722656 C 1592.105469 -1600.125 1586.175781 -1570.710938 1571.0625 -1538.25 C 1555.953125 -1505.792969 1534.492188 -1478.285156 1506.683594 -1455.726562 C 1545.050781 -1454.730469 1580.601562 -1461.03125 1613.105469 -1476.519531 C 1645.613281 -1492.007812 1675.769531 -1511.027344 1699.34375 -1536.886719 C 1723.152344 -1560.859375 1742.730469 -1588.136719 1757.839844 -1620.59375 C 1771.070312 -1652.824219 1778.648438 -1684.351562 1778.460938 -1716.835938 C 1778.273438 -1749.316406 1768.667969 -1780.636719 1753.179688 -1813.140625 C 1736.042969 -1843.53125 1709.71875 -1870.875 1672.332031 -1894.9375 C 1637.523438 -1913.585938 1598.226562 -1922.117188 1554.441406 -1920.53125 C 1510.660156 -1918.949219 1466.390625 -1905.832031 1421.164062 -1884.949219 C 1374.292969 -1861.953125 1330.464844 -1829.769531 1287.566406 -1790.054688 C 1242.785156 -1750.105469 1204.816406 -1701.4375 1173.429688 -1645.933594 C 1135.671875 -1580.082031 1100.730469 -1506.929688 1072.597656 -1425.058594 C 1044.46875 -1343.1875 1016.570312 -1259.433594 988.90625 -1173.796875 C 961.242188 -1088.160156 933.34375 -1004.40625 904.980469 -924.417969 C 876.617188 -844.429688 841.671875 -771.277344 801.566406 -708.960938 C 761.460938 -646.644531 714.308594 -594.933594 661.53125 -557.820312 C 606.867188 -520.472656 542.113281 -502.914062 467.265625 -505.144531 C 419.25 -506.863281 383.023438 -521.507812 356.699219 -548.851562 C 330.378906 -576.195312 310.660156 -612 301.542969 -654.855469 C 290.773438 -695.589844 287.074219 -741.023438 290.445312 -791.15625 C 292.160156 -839.167969 299.996094 -884.117188 311.828125 -927.644531 C 323.894531 -969.289062 340.425781 -1005.746094 359.769531 -1034.90625 C 379.113281 -1064.066406 399.851562 -1081.921875 422.21875 -1086.597656 C 367.644531 -1110.453125 316.585938 -1121.355469 269.269531 -1117.421875 C 220.066406 -1113.257812 176.03125 -1098.257812 136.921875 -1074.304688 C 95.929688 -1050.121094 59.867188 -1016.988281 30.621094 -975.132812 C -0.511719 -933.046875 -25.296875 -886.003906 -41.847656 -834.246094 C -60.285156 -782.253906 -72.605469 -727.195312 -76.925781 -669.296875 C -83.132812 -611.167969 -79.921875 -554.199219 -69.175781 -498.164062 C -55.175781 -415.761719 -29.382812 -346.285156 6.308594 -289.507812 C 40.351562 -230.613281 84.535156 -182.53125 134.851562 -146.679688 C 185.171875 -110.828125 239.976562 -85.089844 300.921875 -71.585938 C 362.097656 -56.195312 425.410156 -54.453125 493.210938 -62.828125 Z M 493.210938 -62.828125 "/></g></g></g><g fill="#5ce1e6" fill-opacity="1"><g transform="translate(3129.606685, 2222.29133)"><g><path d="M 188.882812 -715.511719 L -184.570312 22.796875 L 75.335938 -9.304688 C 163.171875 -196.066406 235.894531 -350.367188 293.039062 -475.976562 C 350.1875 -601.585938 399.058594 -701.316406 441.300781 -777.28125 C 481.894531 -851.128906 519.164062 -905.449219 553.34375 -938.351562 C 587.753906 -969.371094 623.792969 -987.207031 663.578125 -990.207031 C 688.527344 -989.464844 706.640625 -982.140625 716.5 -964.238281 C 726.359375 -946.335938 725.152344 -925.152344 709.339844 -898.34375 L 479.726562 -497.121094 C 466.988281 -476.429688 454.710938 -451.96875 438.902344 -425.15625 C 423.324219 -396.464844 411.511719 -368.234375 399.703125 -340.007812 C 386.242188 -309.664062 376.546875 -279.785156 370.621094 -250.371094 C 364.691406 -220.957031 364.183594 -194.125 370.972656 -170.105469 C 376.113281 -143.96875 388.320312 -122.53125 409.480469 -106.027344 C 430.875 -87.632812 462.867188 -76.289062 505.464844 -71.988281 C 532.761719 -67.710938 562.898438 -71.433594 592.566406 -78.921875 C 622.234375 -86.410156 647.4375 -99.085938 671.714844 -119.292969 C 696.21875 -137.617188 719.796875 -163.472656 744.789062 -193.328125 C 767.898438 -222.953125 792.429688 -256.578125 816.726562 -292.082031 C 839.371094 -325.472656 860.132812 -358.632812 880.664062 -393.671875 C 899.542969 -426.597656 918.652344 -457.640625 934.230469 -486.335938 C 923.628906 -479.289062 911.605469 -468.242188 899.820312 -455.316406 C 893.214844 -446.851562 888.261719 -440.503906 881.425781 -433.921875 C 874.59375 -427.339844 867.757812 -420.761719 862.804688 -414.414062 C 849.132812 -401.25 835.460938 -388.089844 821.324219 -378.695312 C 807.1875 -369.300781 792.585938 -363.675781 777.519531 -361.8125 C 754.917969 -359.023438 742.222656 -368.925781 741.082031 -393.644531 C 738.523438 -414.359375 744.449219 -443.773438 758.632812 -483.765625 C 771.394531 -519.761719 789.34375 -560.222656 810.363281 -606.796875 C 831.609375 -651.484375 852.859375 -696.175781 874.109375 -740.867188 C 893.710938 -783.441406 911.890625 -822.019531 926.539062 -858.246094 C 941.417969 -892.589844 949.691406 -918.46875 951.367188 -935.882812 C 950.945312 -970.25 947.691406 -996.617188 937.363281 -1018.289062 C 927.039062 -1039.957031 915.296875 -1057.628906 898.367188 -1070.835938 C 860.746094 -1096.78125 820.984375 -1109.078125 778.851562 -1109.613281 C 736.722656 -1110.144531 693.867188 -1101.027344 654.296875 -1080.84375 C 612.839844 -1060.425781 574.195312 -1032.707031 536.714844 -995.574219 C 499.46875 -956.554688 468.335938 -914.46875 440.019531 -865.078125 C 448.570312 -919.675781 449.105469 -961.808594 439.5 -993.125 C 430.128906 -1022.5625 408.734375 -1040.953125 375.324219 -1048.300781 C 352.023438 -1051.160156 324.007812 -1045.785156 291.269531 -1032.183594 C 256.648438 -1018.34375 215.886719 -992.277344 170.640625 -956.097656 L 164.0625 -962.933594 C 199.777344 -921.453125 218.078125 -881.648438 222.5 -845.863281 C 222.941406 -826.796875 219.851562 -805.382812 214.644531 -785.617188 C 207.785156 -763.738281 199.277344 -739.742188 188.882812 -715.511719 Z M 188.882812 -715.511719 "/></g></g></g><g fill="#5ce1e6" fill-opacity="1"><g transform="translate(4012.823948, 2113.206538)"><g><path d="M 598.703125 -91.152344 L 591.867188 -84.574219 C 644.601562 -91.085938 695.476562 -112.667969 746.140625 -151.429688 C 795.152344 -188.078125 843.003906 -234.140625 886.15625 -287.273438 C 927.65625 -338.289062 964.695312 -394.492188 999.613281 -452.34375 C 1034.535156 -510.195312 1062.15625 -565.234375 1082.941406 -613.691406 C 1079.640625 -609.460938 1076.105469 -607.109375 1070.921875 -602.644531 C 1065.734375 -598.179688 1060.785156 -591.832031 1053.949219 -585.253906 C 1038.859375 -568.09375 1021.886719 -550.699219 1003.027344 -533.074219 C 984.40625 -513.5625 963.898438 -493.824219 941.507812 -473.847656 C 893.660156 -427.785156 853.828125 -394.183594 818.023438 -374.464844 C 800.351562 -362.722656 785.519531 -358.976562 775.636719 -361.582031 C 765.753906 -364.183594 762.476562 -375.25 765.796875 -394.785156 C 767.238281 -414.082031 780.46875 -446.308594 802.183594 -487.234375 L 1143.277344 -1146.972656 L 877.71875 -1114.175781 L 778.582031 -926.015625 C 773.929688 -963.683594 764.558594 -993.121094 748.117188 -1017.859375 C 731.910156 -1040.714844 712.636719 -1057.453125 688.171875 -1069.730469 C 662.0625 -1079.890625 632.878906 -1083.933594 602.28125 -1083.980469 C 571.914062 -1082.140625 538.480469 -1074.1875 505.507812 -1062.464844 C 480.070312 -1051.675781 451.332031 -1036.65625 421.640625 -1013.867188 C 391.949219 -991.078125 362.492188 -966.40625 331.847656 -935.851562 C 301.203125 -905.296875 269.140625 -870.746094 237.542969 -832.425781 C 205.945312 -794.101562 176.234375 -756.015625 146.984375 -714.160156 C 111.132812 -663.84375 79.046875 -613.988281 50.960938 -562.71875 C 21.226562 -509.332031 -3.09375 -458.523438 -23.644531 -408.183594 C -38.292969 -371.957031 -50.355469 -330.3125 -56.074219 -283.714844 C -61.792969 -237.117188 -62.324219 -194.984375 -53.671875 -155.898438 C -46.671875 -114.699219 -31.183594 -82.191406 -8.863281 -56.269531 C 13.460938 -30.34375 47.339844 -19.230469 94.425781 -25.046875 C 158.457031 -32.957031 224.632812 -54.511719 288.710938 -93.023438 C 319.101562 -110.160156 347.140625 -130.832031 373.066406 -153.15625 C 398.992188 -175.476562 420.683594 -201.101562 436.492188 -227.914062 C 438.078125 -184.128906 453.796875 -149.742188 483.886719 -122.863281 C 512.089844 -95.753906 549.734375 -85.105469 598.703125 -91.152344 Z M 254.636719 -291.496094 C 236.523438 -298.820312 223.363281 -312.492188 214.921875 -334.394531 C 206.480469 -356.296875 206.757812 -385.011719 213.636719 -422.191406 C 218.867188 -457.257812 232.816406 -499.132812 256.902344 -551.824219 C 281.222656 -602.628906 315.910156 -662.363281 360.96875 -731.03125 C 380.3125 -760.1875 399.65625 -789.347656 422.769531 -818.96875 C 443.996094 -848.363281 467.570312 -874.21875 491.148438 -900.074219 C 513.070312 -923.816406 537.347656 -944.023438 564.199219 -958.8125 C 589.171875 -973.371094 616.957031 -980.625 647.09375 -984.347656 C 664.273438 -984.558594 678.15625 -980.535156 688.738281 -972.28125 C 697.664062 -961.914062 704.945312 -949.425781 710.804688 -932.941406 C 714.78125 -916.222656 717.105469 -897.390625 716.132812 -874.324219 C 715.15625 -851.257812 714.179688 -828.191406 709.671875 -802.777344 L 711.554688 -803.011719 L 549.179688 -507.613281 C 536.902344 -483.152344 519.210938 -456.109375 499.867188 -426.949219 C 478.640625 -397.558594 455.296875 -369.820312 429.605469 -345.613281 C 402.261719 -319.289062 373.988281 -300.5 344.785156 -289.246094 C 313.929688 -275.875 283.332031 -275.917969 254.636719 -291.496094 Z M 254.636719 -291.496094 "/></g></g></g><g fill="#5ce1e6" fill-opacity="1"><g transform="translate(4986.436545, 1992.95716)"><g><path d="M 185.582031 -711.28125 L -657.140625 933.960938 C -630.773438 930.707031 -608.871094 922.265625 -588.128906 904.40625 L -527.328125 854.828125 C -506.355469 838.855469 -481.386719 824.296875 -452.648438 809.277344 C -423.675781 796.136719 -388.125 789.835938 -342.457031 788.019531 L -325.695312 753.441406 L 126.386719 -153.28125 C 158.339844 -111.335938 194.542969 -81.390625 232.652344 -66.976562 C 269.113281 -50.445312 307.945312 -45.683594 349.144531 -52.683594 C 388.695312 -57.566406 428.96875 -72.101562 468.074219 -96.054688 C 507.183594 -120.003906 545.59375 -149.605469 583.074219 -186.742188 C 631.15625 -230.921875 676.191406 -284.285156 718.414062 -344.953125 C 760.636719 -405.617188 798.625 -469.585938 832.617188 -534.972656 C 866.609375 -600.355469 895.179688 -663.160156 917.871094 -727.152344 C 940.5625 -791.140625 956.183594 -850.433594 964.738281 -905.03125 C 971.410156 -959.390625 969.824219 -1003.175781 961.40625 -1040.378906 C 951.101562 -1077.347656 931.128906 -1099.738281 901.015625 -1111.316406 C 881.253906 -1116.523438 856.304688 -1117.265625 828.054688 -1113.777344 C 799.804688 -1110.289062 766.832031 -1098.566406 730.792969 -1080.730469 C 693.101562 -1060.777344 650.460938 -1034.480469 603.332031 -998.066406 C 554.320312 -961.417969 501.050781 -912.773438 443.066406 -855.894531 C 453.988281 -922.257812 447.707031 -973.109375 422.570312 -1006.332031 C 395.785156 -1037.441406 365.207031 -1052.785156 327.074219 -1051.902344 C 296.707031 -1050.0625 267.273438 -1040.691406 236.648438 -1025.4375 C 206.261719 -1008.296875 182.21875 -986.207031 162.644531 -958.933594 C 188.058594 -954.421875 206.402344 -945.214844 216.03125 -929.195312 C 225.890625 -911.292969 231.984375 -892.925781 231.007812 -869.859375 C 230.265625 -844.910156 223.871094 -819.261719 215.828125 -791.5 C 207.785156 -763.738281 197.859375 -735.742188 187.464844 -711.511719 Z M 404.144531 -319.523438 C 372.128906 -315.566406 348.363281 -322.195312 332.855469 -339.398438 C 317.578125 -354.722656 307.484375 -374.507812 302.34375 -400.644531 C 295.554688 -424.660156 296.066406 -451.492188 301.992188 -480.90625 C 306.035156 -510.089844 316.195312 -536.199219 328.472656 -560.664062 L 330.355469 -560.894531 C 348.535156 -599.46875 373.785156 -642.742188 406.101562 -690.714844 C 438.652344 -736.800781 473.085938 -783.117188 511.519531 -828.019531 C 548.300781 -870.804688 587.664062 -908.171875 629.144531 -943.890625 C 670.855469 -977.722656 711.847656 -1001.90625 751.886719 -1018.324219 C 781.089844 -1029.578125 804.15625 -1028.605469 820.851562 -1017.28125 C 837.546875 -1005.957031 845.523438 -987.824219 848.777344 -961.457031 C 850.382812 -932.972656 846.804688 -900.023438 838.042969 -862.613281 C 829.511719 -823.316406 817.210938 -783.554688 799.496094 -741.210938 C 784.382812 -708.753906 762.667969 -667.828125 733.886719 -622.207031 C 703.453125 -574.46875 669.019531 -528.152344 632.234375 -485.367188 C 593.804688 -440.464844 554.441406 -403.097656 514.378906 -371.378906 C 474.316406 -339.660156 438.277344 -321.824219 404.144531 -319.523438 Z M 404.144531 -319.523438 "/></g></g></g><g fill="#ff914d" fill-opacity="1"><g transform="translate(2352.996558, 3723.017797)"><g><path d="M 493.210938 -62.828125 C 595.148438 -73.503906 682.992188 -105.386719 756.742188 -158.476562 C 828.609375 -211.332031 891.316406 -276.4375 942.746094 -355.449219 C 994.175781 -434.460938 1035.023438 -521.726562 1069.058594 -617.714844 C 1103.09375 -713.699219 1131.015625 -812.75 1156.820312 -913.457031 C 1180.972656 -1012.042969 1203.242188 -1110.402344 1224.09375 -1204.757812 C 1244.949219 -1299.113281 1266.730469 -1385.9375 1291.792969 -1461.691406 C 1316.851562 -1537.449219 1345.660156 -1598.367188 1377.742188 -1648.222656 C 1410.0625 -1696.191406 1450.585938 -1724.144531 1501.4375 -1730.421875 C 1529.6875 -1733.914062 1551.800781 -1725.171875 1567.542969 -1706.082031 C 1581.636719 -1684.878906 1590.308594 -1661.089844 1592.148438 -1630.722656 C 1592.105469 -1600.125 1586.175781 -1570.710938 1571.0625 -1538.25 C 1555.953125 -1505.792969 1534.492188 -1478.285156 1506.683594 -1455.726562 C 1545.050781 -1454.730469 1580.601562 -1461.03125 1613.105469 -1476.519531 C 1645.613281 -1492.007812 1675.769531 -1511.027344 1699.34375 -1536.886719 C 1723.152344 -1560.859375 1742.730469 -1588.136719 1757.839844 -1620.59375 C 1771.070312 -1652.824219 1778.648438 -1684.351562 1778.460938 -1716.835938 C 1778.273438 -1749.316406 1768.667969 -1780.636719 1753.179688 -1813.140625 C 1736.042969 -1843.53125 1709.71875 -1870.875 1672.332031 -1894.9375 C 1637.523438 -1913.585938 1598.226562 -1922.117188 1554.441406 -1920.53125 C 1510.660156 -1918.949219 1466.390625 -1905.832031 1421.164062 -1884.949219 C 1374.292969 -1861.953125 1330.464844 -1829.769531 1287.566406 -1790.054688 C 1242.785156 -1750.105469 1204.816406 -1701.4375 1173.429688 -1645.933594 C 1135.671875 -1580.082031 1100.730469 -1506.929688 1072.597656 -1425.058594 C 1044.46875 -1343.1875 1016.570312 -1259.433594 988.90625 -1173.796875 C 961.242188 -1088.160156 933.34375 -1004.40625 904.980469 -924.417969 C 876.617188 -844.429688 841.671875 -771.277344 801.566406 -708.960938 C 761.460938 -646.644531 714.308594 -594.933594 661.53125 -557.820312 C 606.867188 -520.472656 542.113281 -502.914062 467.265625 -505.144531 C 419.25 -506.863281 383.023438 -521.507812 356.699219 -548.851562 C 330.378906 -576.195312 310.660156 -612 301.542969 -654.855469 C 290.773438 -695.589844 287.074219 -741.023438 290.445312 -791.15625 C 292.160156 -839.167969 299.996094 -884.117188 311.828125 -927.644531 C 323.894531 -969.289062 340.425781 -1005.746094 359.769531 -1034.90625 C 379.113281 -1064.066406 399.851562 -1081.921875 422.21875 -1086.597656 C 367.644531 -1110.453125 316.585938 -1121.355469 269.269531 -1117.421875 C 220.066406 -1113.257812 176.03125 -1098.257812 136.921875 -1074.304688 C 95.929688 -1050.121094 59.867188 -1016.988281 30.621094 -975.132812 C -0.511719 -933.046875 -25.296875 -886.003906 -41.847656 -834.246094 C -60.285156 -782.253906 -72.605469 -727.195312 -76.925781 -669.296875 C -83.132812 -611.167969 -79.921875 -554.199219 -69.175781 -498.164062 C -55.175781 -415.761719 -29.382812 -346.285156 6.308594 -289.507812 C 40.351562 -230.613281 84.535156 -182.53125 134.851562 -146.679688 C 185.171875 -110.828125 239.976562 -85.089844 300.921875 -71.585938 C 362.097656 -56.195312 425.410156 -54.453125 493.210938 -62.828125 Z M 493.210938 -62.828125 "/></g></g></g><g fill="#ff914d" fill-opacity="1"><g transform="translate(3656.174498, 3562.064315)"><g><path d="M 188.882812 -715.511719 L -184.570312 22.796875 L 75.335938 -9.304688 C 163.171875 -196.066406 235.894531 -350.367188 293.039062 -475.976562 C 350.1875 -601.585938 399.058594 -701.316406 441.300781 -777.28125 C 481.894531 -851.128906 519.164062 -905.449219 553.34375 -938.351562 C 587.753906 -969.371094 623.792969 -987.207031 663.578125 -990.207031 C 688.527344 -989.464844 706.640625 -982.140625 716.5 -964.238281 C 726.359375 -946.335938 725.152344 -925.152344 709.339844 -898.34375 L 479.726562 -497.121094 C 466.988281 -476.429688 454.710938 -451.96875 438.902344 -425.15625 C 423.324219 -396.464844 411.511719 -368.234375 399.703125 -340.007812 C 386.242188 -309.664062 376.546875 -279.785156 370.621094 -250.371094 C 364.691406 -220.957031 364.183594 -194.125 370.972656 -170.105469 C 376.113281 -143.96875 388.320312 -122.53125 409.480469 -106.027344 C 430.875 -87.632812 462.867188 -76.289062 505.464844 -71.988281 C 532.761719 -67.710938 562.898438 -71.433594 592.566406 -78.921875 C 622.234375 -86.410156 647.4375 -99.085938 671.714844 -119.292969 C 696.21875 -137.617188 719.796875 -163.472656 744.789062 -193.328125 C 767.898438 -222.953125 792.429688 -256.578125 816.726562 -292.082031 C 839.371094 -325.472656 860.132812 -358.632812 880.664062 -393.671875 C 899.542969 -426.597656 918.652344 -457.640625 934.230469 -486.335938 C 923.628906 -479.289062 911.605469 -468.242188 899.820312 -455.316406 C 893.214844 -446.851562 888.261719 -440.503906 881.425781 -433.921875 C 874.59375 -427.339844 867.757812 -420.761719 862.804688 -414.414062 C 849.132812 -401.25 835.460938 -388.089844 821.324219 -378.695312 C 807.1875 -369.300781 792.585938 -363.675781 777.519531 -361.8125 C 754.917969 -359.023438 742.222656 -368.925781 741.082031 -393.644531 C 738.523438 -414.359375 744.449219 -443.773438 758.632812 -483.765625 C 771.394531 -519.761719 789.34375 -560.222656 810.363281 -606.796875 C 831.609375 -651.484375 852.859375 -696.175781 874.109375 -740.867188 C 893.710938 -783.441406 911.890625 -822.019531 926.539062 -858.246094 C 941.417969 -892.589844 949.691406 -918.46875 951.367188 -935.882812 C 950.945312 -970.25 947.691406 -996.617188 937.363281 -1018.289062 C 927.039062 -1039.957031 915.296875 -1057.628906 898.367188 -1070.835938 C 860.746094 -1096.78125 820.984375 -1109.078125 778.851562 -1109.613281 C 736.722656 -1110.144531 693.867188 -1101.027344 654.296875 -1080.84375 C 612.839844 -1060.425781 574.195312 -1032.707031 536.714844 -995.574219 C 499.46875 -956.554688 468.335938 -914.46875 440.019531 -865.078125 C 448.570312 -919.675781 449.105469 -961.808594 439.5 -993.125 C 430.128906 -1022.5625 408.734375 -1040.953125 375.324219 -1048.300781 C 352.023438 -1051.160156 324.007812 -1045.785156 291.269531 -1032.183594 C 256.648438 -1018.34375 215.886719 -992.277344 170.640625 -956.097656 L 164.0625 -962.933594 C 199.777344 -921.453125 218.078125 -881.648438 222.5 -845.863281 C 222.941406 -826.796875 219.851562 -805.382812 214.644531 -785.617188 C 207.785156 -763.738281 199.277344 -739.742188 188.882812 -715.511719 Z M 188.882812 -715.511719 "/></g></g></g><g fill="#ff914d" fill-opacity="1"><g transform="translate(4539.391762, 3452.979523)"><g><path d="M 598.703125 -91.152344 L 591.867188 -84.574219 C 644.601562 -91.085938 695.476562 -112.667969 746.140625 -151.429688 C 795.152344 -188.078125 843.003906 -234.140625 886.15625 -287.273438 C 927.65625 -338.289062 964.695312 -394.492188 999.613281 -452.34375 C 1034.535156 -510.195312 1062.15625 -565.234375 1082.941406 -613.691406 C 1079.640625 -609.460938 1076.105469 -607.109375 1070.921875 -602.644531 C 1065.734375 -598.179688 1060.785156 -591.832031 1053.949219 -585.253906 C 1038.859375 -568.09375 1021.886719 -550.699219 1003.027344 -533.074219 C 984.40625 -513.5625 963.898438 -493.824219 941.507812 -473.847656 C 893.660156 -427.785156 853.828125 -394.183594 818.023438 -374.464844 C 800.351562 -362.722656 785.519531 -358.976562 775.636719 -361.582031 C 765.753906 -364.183594 762.476562 -375.25 765.796875 -394.785156 C 767.238281 -414.082031 780.46875 -446.308594 802.183594 -487.234375 L 1143.277344 -1146.972656 L 877.71875 -1114.175781 L 778.582031 -926.015625 C 773.929688 -963.683594 764.558594 -993.121094 748.117188 -1017.859375 C 731.910156 -1040.714844 712.636719 -1057.453125 688.171875 -1069.730469 C 662.0625 -1079.890625 632.878906 -1083.933594 602.28125 -1083.980469 C 571.914062 -1082.140625 538.480469 -1074.1875 505.507812 -1062.464844 C 480.070312 -1051.675781 451.332031 -1036.65625 421.640625 -1013.867188 C 391.949219 -991.078125 362.492188 -966.40625 331.847656 -935.851562 C 301.203125 -905.296875 269.140625 -870.746094 237.542969 -832.425781 C 205.945312 -794.101562 176.234375 -756.015625 146.984375 -714.160156 C 111.132812 -663.84375 79.046875 -613.988281 50.960938 -562.71875 C 21.226562 -509.332031 -3.09375 -458.523438 -23.644531 -408.183594 C -38.292969 -371.957031 -50.355469 -330.3125 -56.074219 -283.714844 C -61.792969 -237.117188 -62.324219 -194.984375 -53.671875 -155.898438 C -46.671875 -114.699219 -31.183594 -82.191406 -8.863281 -56.269531 C 13.460938 -30.34375 47.339844 -19.230469 94.425781 -25.046875 C 158.457031 -32.957031 224.632812 -54.511719 288.710938 -93.023438 C 319.101562 -110.160156 347.140625 -130.832031 373.066406 -153.15625 C 398.992188 -175.476562 420.683594 -201.101562 436.492188 -227.914062 C 438.078125 -184.128906 453.796875 -149.742188 483.886719 -122.863281 C 512.089844 -95.753906 549.734375 -85.105469 598.703125 -91.152344 Z M 254.636719 -291.496094 C 236.523438 -298.820312 223.363281 -312.492188 214.921875 -334.394531 C 206.480469 -356.296875 206.757812 -385.011719 213.636719 -422.191406 C 218.867188 -457.257812 232.816406 -499.132812 256.902344 -551.824219 C 281.222656 -602.628906 315.910156 -662.363281 360.96875 -731.03125 C 380.3125 -760.1875 399.65625 -789.347656 422.769531 -818.96875 C 443.996094 -848.363281 467.570312 -874.21875 491.148438 -900.074219 C 513.070312 -923.816406 537.347656 -944.023438 564.199219 -958.8125 C 589.171875 -973.371094 616.957031 -980.625 647.09375 -984.347656 C 664.273438 -984.558594 678.15625 -980.535156 688.738281 -972.28125 C 697.664062 -961.914062 704.945312 -949.425781 710.804688 -932.941406 C 714.78125 -916.222656 717.105469 -897.390625 716.132812 -874.324219 C 715.15625 -851.257812 714.179688 -828.191406 709.671875 -802.777344 L 711.554688 -803.011719 L 549.179688 -507.613281 C 536.902344 -483.152344 519.210938 -456.109375 499.867188 -426.949219 C 478.640625 -397.558594 455.296875 -369.820312 429.605469 -345.613281 C 402.261719 -319.289062 373.988281 -300.5 344.785156 -289.246094 C 313.929688 -275.875 283.332031 -275.917969 254.636719 -291.496094 Z M 254.636719 -291.496094 "/></g></g></g><g fill="#ff914d" fill-opacity="1"><g transform="translate(5513.004358, 3332.730145)"><g><path d="M 185.582031 -711.28125 L -657.140625 933.960938 C -630.773438 930.707031 -608.871094 922.265625 -588.128906 904.40625 L -527.328125 854.828125 C -506.355469 838.855469 -481.386719 824.296875 -452.648438 809.277344 C -423.675781 796.136719 -388.125 789.835938 -342.457031 788.019531 L -325.695312 753.441406 L 126.386719 -153.28125 C 158.339844 -111.335938 194.542969 -81.390625 232.652344 -66.976562 C 269.113281 -50.445312 307.945312 -45.683594 349.144531 -52.683594 C 388.695312 -57.566406 428.96875 -72.101562 468.074219 -96.054688 C 507.183594 -120.003906 545.59375 -149.605469 583.074219 -186.742188 C 631.15625 -230.921875 676.191406 -284.285156 718.414062 -344.953125 C 760.636719 -405.617188 798.625 -469.585938 832.617188 -534.972656 C 866.609375 -600.355469 895.179688 -663.160156 917.871094 -727.152344 C 940.5625 -791.140625 956.183594 -850.433594 964.738281 -905.03125 C 971.410156 -959.390625 969.824219 -1003.175781 961.40625 -1040.378906 C 951.101562 -1077.347656 931.128906 -1099.738281 901.015625 -1111.316406 C 881.253906 -1116.523438 856.304688 -1117.265625 828.054688 -1113.777344 C 799.804688 -1110.289062 766.832031 -1098.566406 730.792969 -1080.730469 C 693.101562 -1060.777344 650.460938 -1034.480469 603.332031 -998.066406 C 554.320312 -961.417969 501.050781 -912.773438 443.066406 -855.894531 C 453.988281 -922.257812 447.707031 -973.109375 422.570312 -1006.332031 C 395.785156 -1037.441406 365.207031 -1052.785156 327.074219 -1051.902344 C 296.707031 -1050.0625 267.273438 -1040.691406 236.648438 -1025.4375 C 206.261719 -1008.296875 182.21875 -986.207031 162.644531 -958.933594 C 188.058594 -954.421875 206.402344 -945.214844 216.03125 -929.195312 C 225.890625 -911.292969 231.984375 -892.925781 231.007812 -869.859375 C 230.265625 -844.910156 223.871094 -819.261719 215.828125 -791.5 C 207.785156 -763.738281 197.859375 -735.742188 187.464844 -711.511719 Z M 404.144531 -319.523438 C 372.128906 -315.566406 348.363281 -322.195312 332.855469 -339.398438 C 317.578125 -354.722656 307.484375 -374.507812 302.34375 -400.644531 C 295.554688 -424.660156 296.066406 -451.492188 301.992188 -480.90625 C 306.035156 -510.089844 316.195312 -536.199219 328.472656 -560.664062 L 330.355469 -560.894531 C 348.535156 -599.46875 373.785156 -642.742188 406.101562 -690.714844 C 438.652344 -736.800781 473.085938 -783.117188 511.519531 -828.019531 C 548.300781 -870.804688 587.664062 -908.171875 629.144531 -943.890625 C 670.855469 -977.722656 711.847656 -1001.90625 751.886719 -1018.324219 C 781.089844 -1029.578125 804.15625 -1028.605469 820.851562 -1017.28125 C 837.546875 -1005.957031 845.523438 -987.824219 848.777344 -961.457031 C 850.382812 -932.972656 846.804688 -900.023438 838.042969 -862.613281 C 829.511719 -823.316406 817.210938 -783.554688 799.496094 -741.210938 C 784.382812 -708.753906 762.667969 -667.828125 733.886719 -622.207031 C 703.453125 -574.46875 669.019531 -528.152344 632.234375 -485.367188 C 593.804688 -440.464844 554.441406 -403.097656 514.378906 -371.378906 C 474.316406 -339.660156 438.277344 -321.824219 404.144531 -319.523438 Z M 404.144531 -319.523438 "/></g></g></g><g fill="#ffde59" fill-opacity="1"><g transform="translate(2395.195882, 3692.312172)"><g><path d="M 493.210938 -62.828125 C 595.148438 -73.503906 682.992188 -105.386719 756.742188 -158.476562 C 828.609375 -211.332031 891.316406 -276.4375 942.746094 -355.449219 C 994.175781 -434.460938 1035.023438 -521.726562 1069.058594 -617.714844 C 1103.09375 -713.699219 1131.015625 -812.75 1156.820312 -913.457031 C 1180.972656 -1012.042969 1203.242188 -1110.402344 1224.09375 -1204.757812 C 1244.949219 -1299.113281 1266.730469 -1385.9375 1291.792969 -1461.691406 C 1316.851562 -1537.449219 1345.660156 -1598.367188 1377.742188 -1648.222656 C 1410.0625 -1696.191406 1450.585938 -1724.144531 1501.4375 -1730.421875 C 1529.6875 -1733.914062 1551.800781 -1725.171875 1567.542969 -1706.082031 C 1581.636719 -1684.878906 1590.308594 -1661.089844 1592.148438 -1630.722656 C 1592.105469 -1600.125 1586.175781 -1570.710938 1571.0625 -1538.25 C 1555.953125 -1505.792969 1534.492188 -1478.285156 1506.683594 -1455.726562 C 1545.050781 -1454.730469 1580.601562 -1461.03125 1613.105469 -1476.519531 C 1645.613281 -1492.007812 1675.769531 -1511.027344 1699.34375 -1536.886719 C 1723.152344 -1560.859375 1742.730469 -1588.136719 1757.839844 -1620.59375 C 1771.070312 -1652.824219 1778.648438 -1684.351562 1778.460938 -1716.835938 C 1778.273438 -1749.316406 1768.667969 -1780.636719 1753.179688 -1813.140625 C 1736.042969 -1843.53125 1709.71875 -1870.875 1672.332031 -1894.9375 C 1637.523438 -1913.585938 1598.226562 -1922.117188 1554.441406 -1920.53125 C 1510.660156 -1918.949219 1466.390625 -1905.832031 1421.164062 -1884.949219 C 1374.292969 -1861.953125 1330.464844 -1829.769531 1287.566406 -1790.054688 C 1242.785156 -1750.105469 1204.816406 -1701.4375 1173.429688 -1645.933594 C 1135.671875 -1580.082031 1100.730469 -1506.929688 1072.597656 -1425.058594 C 1044.46875 -1343.1875 1016.570312 -1259.433594 988.90625 -1173.796875 C 961.242188 -1088.160156 933.34375 -1004.40625 904.980469 -924.417969 C 876.617188 -844.429688 841.671875 -771.277344 801.566406 -708.960938 C 761.460938 -646.644531 714.308594 -594.933594 661.53125 -557.820312 C 606.867188 -520.472656 542.113281 -502.914062 467.265625 -505.144531 C 419.25 -506.863281 383.023438 -521.507812 356.699219 -548.851562 C 330.378906 -576.195312 310.660156 -612 301.542969 -654.855469 C 290.773438 -695.589844 287.074219 -741.023438 290.445312 -791.15625 C 292.160156 -839.167969 299.996094 -884.117188 311.828125 -927.644531 C 323.894531 -969.289062 340.425781 -1005.746094 359.769531 -1034.90625 C 379.113281 -1064.066406 399.851562 -1081.921875 422.21875 -1086.597656 C 367.644531 -1110.453125 316.585938 -1121.355469 269.269531 -1117.421875 C 220.066406 -1113.257812 176.03125 -1098.257812 136.921875 -1074.304688 C 95.929688 -1050.121094 59.867188 -1016.988281 30.621094 -975.132812 C -0.511719 -933.046875 -25.296875 -886.003906 -41.847656 -834.246094 C -60.285156 -782.253906 -72.605469 -727.195312 -76.925781 -669.296875 C -83.132812 -611.167969 -79.921875 -554.199219 -69.175781 -498.164062 C -55.175781 -415.761719 -29.382812 -346.285156 6.308594 -289.507812 C 40.351562 -230.613281 84.535156 -182.53125 134.851562 -146.679688 C 185.171875 -110.828125 239.976562 -85.089844 300.921875 -71.585938 C 362.097656 -56.195312 425.410156 -54.453125 493.210938 -62.828125 Z M 493.210938 -62.828125 "/></g></g></g><g fill="#ffde59" fill-opacity="1"><g transform="translate(3698.373822, 3531.35869)"><g><path d="M 188.882812 -715.511719 L -184.570312 22.796875 L 75.335938 -9.304688 C 163.171875 -196.066406 235.894531 -350.367188 293.039062 -475.976562 C 350.1875 -601.585938 399.058594 -701.316406 441.300781 -777.28125 C 481.894531 -851.128906 519.164062 -905.449219 553.34375 -938.351562 C 587.753906 -969.371094 623.792969 -987.207031 663.578125 -990.207031 C 688.527344 -989.464844 706.640625 -982.140625 716.5 -964.238281 C 726.359375 -946.335938 725.152344 -925.152344 709.339844 -898.34375 L 479.726562 -497.121094 C 466.988281 -476.429688 454.710938 -451.96875 438.902344 -425.15625 C 423.324219 -396.464844 411.511719 -368.234375 399.703125 -340.007812 C 386.242188 -309.664062 376.546875 -279.785156 370.621094 -250.371094 C 364.691406 -220.957031 364.183594 -194.125 370.972656 -170.105469 C 376.113281 -143.96875 388.320312 -122.53125 409.480469 -106.027344 C 430.875 -87.632812 462.867188 -76.289062 505.464844 -71.988281 C 532.761719 -67.710938 562.898438 -71.433594 592.566406 -78.921875 C 622.234375 -86.410156 647.4375 -99.085938 671.714844 -119.292969 C 696.21875 -137.617188 719.796875 -163.472656 744.789062 -193.328125 C 767.898438 -222.953125 792.429688 -256.578125 816.726562 -292.082031 C 839.371094 -325.472656 860.132812 -358.632812 880.664062 -393.671875 C 899.542969 -426.597656 918.652344 -457.640625 934.230469 -486.335938 C 923.628906 -479.289062 911.605469 -468.242188 899.820312 -455.316406 C 893.214844 -446.851562 888.261719 -440.503906 881.425781 -433.921875 C 874.59375 -427.339844 867.757812 -420.761719 862.804688 -414.414062 C 849.132812 -401.25 835.460938 -388.089844 821.324219 -378.695312 C 807.1875 -369.300781 792.585938 -363.675781 777.519531 -361.8125 C 754.917969 -359.023438 742.222656 -368.925781 741.082031 -393.644531 C 738.523438 -414.359375 744.449219 -443.773438 758.632812 -483.765625 C 771.394531 -519.761719 789.34375 -560.222656 810.363281 -606.796875 C 831.609375 -651.484375 852.859375 -696.175781 874.109375 -740.867188 C 893.710938 -783.441406 911.890625 -822.019531 926.539062 -858.246094 C 941.417969 -892.589844 949.691406 -918.46875 951.367188 -935.882812 C 950.945312 -970.25 947.691406 -996.617188 937.363281 -1018.289062 C 927.039062 -1039.957031 915.296875 -1057.628906 898.367188 -1070.835938 C 860.746094 -1096.78125 820.984375 -1109.078125 778.851562 -1109.613281 C 736.722656 -1110.144531 693.867188 -1101.027344 654.296875 -1080.84375 C 612.839844 -1060.425781 574.195312 -1032.707031 536.714844 -995.574219 C 499.46875 -956.554688 468.335938 -914.46875 440.019531 -865.078125 C 448.570312 -919.675781 449.105469 -961.808594 439.5 -993.125 C 430.128906 -1022.5625 408.734375 -1040.953125 375.324219 -1048.300781 C 352.023438 -1051.160156 324.007812 -1045.785156 291.269531 -1032.183594 C 256.648438 -1018.34375 215.886719 -992.277344 170.640625 -956.097656 L 164.0625 -962.933594 C 199.777344 -921.453125 218.078125 -881.648438 222.5 -845.863281 C 222.941406 -826.796875 219.851562 -805.382812 214.644531 -785.617188 C 207.785156 -763.738281 199.277344 -739.742188 188.882812 -715.511719 Z M 188.882812 -715.511719 "/></g></g></g><g fill="#ffde59" fill-opacity="1"><g transform="translate(4581.591086, 3422.273899)"><g><path d="M 598.703125 -91.152344 L 591.867188 -84.574219 C 644.601562 -91.085938 695.476562 -112.667969 746.140625 -151.429688 C 795.152344 -188.078125 843.003906 -234.140625 886.15625 -287.273438 C 927.65625 -338.289062 964.695312 -394.492188 999.613281 -452.34375 C 1034.535156 -510.195312 1062.15625 -565.234375 1082.941406 -613.691406 C 1079.640625 -609.460938 1076.105469 -607.109375 1070.921875 -602.644531 C 1065.734375 -598.179688 1060.785156 -591.832031 1053.949219 -585.253906 C 1038.859375 -568.09375 1021.886719 -550.699219 1003.027344 -533.074219 C 984.40625 -513.5625 963.898438 -493.824219 941.507812 -473.847656 C 893.660156 -427.785156 853.828125 -394.183594 818.023438 -374.464844 C 800.351562 -362.722656 785.519531 -358.976562 775.636719 -361.582031 C 765.753906 -364.183594 762.476562 -375.25 765.796875 -394.785156 C 767.238281 -414.082031 780.46875 -446.308594 802.183594 -487.234375 L 1143.277344 -1146.972656 L 877.71875 -1114.175781 L 778.582031 -926.015625 C 773.929688 -963.683594 764.558594 -993.121094 748.117188 -1017.859375 C 731.910156 -1040.714844 712.636719 -1057.453125 688.171875 -1069.730469 C 662.0625 -1079.890625 632.878906 -1083.933594 602.28125 -1083.980469 C 571.914062 -1082.140625 538.480469 -1074.1875 505.507812 -1062.464844 C 480.070312 -1051.675781 451.332031 -1036.65625 421.640625 -1013.867188 C 391.949219 -991.078125 362.492188 -966.40625 331.847656 -935.851562 C 301.203125 -905.296875 269.140625 -870.746094 237.542969 -832.425781 C 205.945312 -794.101562 176.234375 -756.015625 146.984375 -714.160156 C 111.132812 -663.84375 79.046875 -613.988281 50.960938 -562.71875 C 21.226562 -509.332031 -3.09375 -458.523438 -23.644531 -408.183594 C -38.292969 -371.957031 -50.355469 -330.3125 -56.074219 -283.714844 C -61.792969 -237.117188 -62.324219 -194.984375 -53.671875 -155.898438 C -46.671875 -114.699219 -31.183594 -82.191406 -8.863281 -56.269531 C 13.460938 -30.34375 47.339844 -19.230469 94.425781 -25.046875 C 158.457031 -32.957031 224.632812 -54.511719 288.710938 -93.023438 C 319.101562 -110.160156 347.140625 -130.832031 373.066406 -153.15625 C 398.992188 -175.476562 420.683594 -201.101562 436.492188 -227.914062 C 438.078125 -184.128906 453.796875 -149.742188 483.886719 -122.863281 C 512.089844 -95.753906 549.734375 -85.105469 598.703125 -91.152344 Z M 254.636719 -291.496094 C 236.523438 -298.820312 223.363281 -312.492188 214.921875 -334.394531 C 206.480469 -356.296875 206.757812 -385.011719 213.636719 -422.191406 C 218.867188 -457.257812 232.816406 -499.132812 256.902344 -551.824219 C 281.222656 -602.628906 315.910156 -662.363281 360.96875 -731.03125 C 380.3125 -760.1875 399.65625 -789.347656 422.769531 -818.96875 C 443.996094 -848.363281 467.570312 -874.21875 491.148438 -900.074219 C 513.070312 -923.816406 537.347656 -944.023438 564.199219 -958.8125 C 589.171875 -973.371094 616.957031 -980.625 647.09375 -984.347656 C 664.273438 -984.558594 678.15625 -980.535156 688.738281 -972.28125 C 697.664062 -961.914062 704.945312 -949.425781 710.804688 -932.941406 C 714.78125 -916.222656 717.105469 -897.390625 716.132812 -874.324219 C 715.15625 -851.257812 714.179688 -828.191406 709.671875 -802.777344 L 711.554688 -803.011719 L 549.179688 -507.613281 C 536.902344 -483.152344 519.210938 -456.109375 499.867188 -426.949219 C 478.640625 -397.558594 455.296875 -369.820312 429.605469 -345.613281 C 402.261719 -319.289062 373.988281 -300.5 344.785156 -289.246094 C 313.929688 -275.875 283.332031 -275.917969 254.636719 -291.496094 Z M 254.636719 -291.496094 "/></g></g></g><g fill="#ffde59" fill-opacity="1"><g transform="translate(5555.203682, 3302.02452)"><g><path d="M 185.582031 -711.28125 L -657.140625 933.960938 C -630.773438 930.707031 -608.871094 922.265625 -588.128906 904.40625 L -527.328125 854.828125 C -506.355469 838.855469 -481.386719 824.296875 -452.648438 809.277344 C -423.675781 796.136719 -388.125 789.835938 -342.457031 788.019531 L -325.695312 753.441406 L 126.386719 -153.28125 C 158.339844 -111.335938 194.542969 -81.390625 232.652344 -66.976562 C 269.113281 -50.445312 307.945312 -45.683594 349.144531 -52.683594 C 388.695312 -57.566406 428.96875 -72.101562 468.074219 -96.054688 C 507.183594 -120.003906 545.59375 -149.605469 583.074219 -186.742188 C 631.15625 -230.921875 676.191406 -284.285156 718.414062 -344.953125 C 760.636719 -405.617188 798.625 -469.585938 832.617188 -534.972656 C 866.609375 -600.355469 895.179688 -663.160156 917.871094 -727.152344 C 940.5625 -791.140625 956.183594 -850.433594 964.738281 -905.03125 C 971.410156 -959.390625 969.824219 -1003.175781 961.40625 -1040.378906 C 951.101562 -1077.347656 931.128906 -1099.738281 901.015625 -1111.316406 C 881.253906 -1116.523438 856.304688 -1117.265625 828.054688 -1113.777344 C 799.804688 -1110.289062 766.832031 -1098.566406 730.792969 -1080.730469 C 693.101562 -1060.777344 650.460938 -1034.480469 603.332031 -998.066406 C 554.320312 -961.417969 501.050781 -912.773438 443.066406 -855.894531 C 453.988281 -922.257812 447.707031 -973.109375 422.570312 -1006.332031 C 395.785156 -1037.441406 365.207031 -1052.785156 327.074219 -1051.902344 C 296.707031 -1050.0625 267.273438 -1040.691406 236.648438 -1025.4375 C 206.261719 -1008.296875 182.21875 -986.207031 162.644531 -958.933594 C 188.058594 -954.421875 206.402344 -945.214844 216.03125 -929.195312 C 225.890625 -911.292969 231.984375 -892.925781 231.007812 -869.859375 C 230.265625 -844.910156 223.871094 -819.261719 215.828125 -791.5 C 207.785156 -763.738281 197.859375 -735.742188 187.464844 -711.511719 Z M 404.144531 -319.523438 C 372.128906 -315.566406 348.363281 -322.195312 332.855469 -339.398438 C 317.578125 -354.722656 307.484375 -374.507812 302.34375 -400.644531 C 295.554688 -424.660156 296.066406 -451.492188 301.992188 -480.90625 C 306.035156 -510.089844 316.195312 -536.199219 328.472656 -560.664062 L 330.355469 -560.894531 C 348.535156 -599.46875 373.785156 -642.742188 406.101562 -690.714844 C 438.652344 -736.800781 473.085938 -783.117188 511.519531 -828.019531 C 548.300781 -870.804688 587.664062 -908.171875 629.144531 -943.890625 C 670.855469 -977.722656 711.847656 -1001.90625 751.886719 -1018.324219 C 781.089844 -1029.578125 804.15625 -1028.605469 820.851562 -1017.28125 C 837.546875 -1005.957031 845.523438 -987.824219 848.777344 -961.457031 C 850.382812 -932.972656 846.804688 -900.023438 838.042969 -862.613281 C 829.511719 -823.316406 817.210938 -783.554688 799.496094 -741.210938 C 784.382812 -708.753906 762.667969 -667.828125 733.886719 -622.207031 C 703.453125 -574.46875 669.019531 -528.152344 632.234375 -485.367188 C 593.804688 -440.464844 554.441406 -403.097656 514.378906 -371.378906 C 474.316406 -339.660156 438.277344 -321.824219 404.144531 -319.523438 Z M 404.144531 -319.523438 "/></g></g></g></svg>